/* XPM */
static char * death_left_1_xpm[] = {
"64 64 17 1",
" 	c None",
".	c #122C43",
"+	c #1B4061",
"@	c #000000",
"#	c #FFFFFF",
"$	c #99D9EA",
"%	c #785A3C",
"&	c #533E29",
"*	c #AD4011",
"=	c #FF7E00",
"-	c #3A2B1C",
";	c #25140D",
">	c #464646",
",	c #22B14C",
"'	c #187C35",
")	c #313131",
"!	c #323232",
"................................................................",
"++++++++++++++++++++++++++++++++++++++++++++++++++++++++++++++++",
"++++++++++++++++++++++++++++++++++++.+++++++++++++++++++++++++++",
"++++++++++++++++.+++++++++++++++++++++++++++.+++++++++++++++++++",
"++++++++++++++++++++++++++++++++++++++++++++++++++++++++++++++++",
"++++++++++++++++++++++++++++++++++++++++++++++++++.+++++++++++++",
"++++++.+++++++++++++++++++++++@@@@@+++++++++++++++++++++++++++++",
"++++++++++++++++++++++++++++@@@@@@@@@+++++++++++++++++++++++++++",
"+++++++++++++++++++++++++++@@@@@@@@@@@+++.++++++++++++++.+++++++",
"++++++++++++++++++++.++++++@@@@@@@@@@@++++++++++++++++++++++++++",
"++++++++++++++++++++++++++@@@@@@@@@@@@@+++++++++++++++++++++++++",
".........................@@@@@@@@@@@@@@.........................",
"+++++++++++++++++++++++++@@@@@@@@@@@@@@@++++++++++++++++++++++++",
"++++++++++++++++++++++++@@@@@@@@@@@@@@@@@+++++++++++++++++++++++",
"+++++++.++++++++.+@@@@@@@@@@@@@@@@@@@@@@@@@@@+++++++++++++++++++",
"+++++++++++++++++@@@@@@@@@@@@@@@@@@@@@@@@@@@@@++++.+++++++++++++",
"++++++++++++++++++@@@@@@@@@@@@@@@@@@@@@@@@@@@+++++++++++++++++++",
"+++++++++++++++++++++++@###@@@###@@$@@@@++++++++++++++++++++++++",
"++++++++++++++++++++++@#####@#####@$@@@@++++++++++++++++++++++++",
"++++++++++++++++++++++@#@###@#@###@@@@$@+++++++++++++++++.++++++",
"++++++.+++++++++++++++@#@###@#@###@%@@$@++++++++++++++++++++++++",
"++++++++++++++++++++++@#@###@#@###@%$@@@++++++++++++++++++++++++",
"......................@#####@#####@%$@@@........................",
"++++++++++++++++++++++@#####@#####@%&&@@++++++++++++++++++++++++",
"++++++++++++++++++++++@#####@#####@&&&&@++++++++++++++++++++++++",
"+++++++++++++.+++++++++@###@%@###@&$&@@++++++++++.++++++++++++++",
"+++++++++++++++++++.++++@@@@$&@@@&&$&@@@@+++++++++++++++++++++++",
"++++++++++++++++++++++++++++$@@$@@@@@***@@++++++++++++++++++++++",
"++++++++++++++++++++++++++++@==$===@******@+++++++++++++++++++++",
"++++++++++++++++++++++++++++@===@@@=@*****@+++++++++++++++++++++",
"++++++++++++++++++++++++++++@==@===@=@****@@++++++++++++++++++++",
"+++++++.++++++++++++.+++++++@==@===@=@*****@+++++++++++++.++++++",
"++++++++++++++++++++++++++++@==@===@=@@****@++++++++++++++++++++",
"............................@==@===@==@@***@....................",
"++++++++++++++++++++++++++++@==@===@==@@***@@+++++++++++++++++++",
"++++++++++++++++++++++++++++@==@===@==@@****@+++++++++++++++++++",
"++++++++++++.+++++++++++++++@==@===@==@@****@+++++++++.+++++++++",
"++++++++++++++++++++++++++++@==@===@==@@****@+++++++++++++++++++",
"++++++++++++++++++++++++++++@==@@@@@==@@****@+++++++++++++++++++",
"++++++++++++++++++++++++++++@==@***@==@@****@+++++++++++++++++++",
"++++++++++++++++++++++++++++@@@@@@@@@@@@****@+++++++++++++++++++",
"+++++.++++++++++++++++++++.+@*@%%%%%@***@***@+.+++++++++++++++++",
"++++++++++++++++++++++++++++@@@%%%%%@@@@@****@++++++++++++++++++",
"............................@-@%%%%%@-@.@****@..................",
"++++++++++++++++++++++++++++@@-@@@@@--@+@****@++++++++++++++++++",
"+++++++++++++++++++++++++++++@-@@-----@+@****@+++.++++++++++++++",
"++++++++++++++++++.++++++++++@--@-----@+@*****@+++++++++++++++++",
"++.++++++++++++++++++++++++++@--@-----@+@*****@+++++++++++++++++",
"++++++++++++++++++++++++++++++@-@----@+++@*****@++++++++++++++++",
"++++++++++++++++++++++++++++++@-@@---@+++@**@**@++++++++++++++++",
"++++++++++++++++++++++++++++++@@@@@@@@+++@*@+@*@+++++++++.++++++",
"+++++++++++.+++++++++++++++.+@;;;@;;;;@++@*@++@+++++++++++++++++",
"+++++++++++++++++++++++++++@@;;@@;;;;;@+++@+++++++++++++++++++++",
".............>@>>>>>,')...@;;;@;;;;;;;@.........................",
"+++++++++++++>@))!))'')+++@@@@@@@@@@@@++++++++++++++++++++++++++",
"+++++++.+++++++++++.++++++++++++++++++++.+++++++++++++++++++++++",
"+++++++++++++++++++++++++++++++++++++++++++++++++++++.++++++++++",
"+++++++++++++++++++++++++++.++++++++++++++++++++++++++++++++++++",
"++++++++++++++++++++++++++++++++++++++++++++++++++++++++++++++++",
"++++++++++++++++++++++++++++++++++++++++++++++++++++++++++++++++",
"++++++++++++++++++++++++++++++++++++++++++++++++++++++++++++++++",
"++++++++++++++++++++++++++++++++++++.++++++++++.++++++++++++++++",
"++++++++++++++++.+++++++++++++++++++++++++++++++++++++++++++++++",
"................................................................"};
