/* XPM */
static char * death_right_2_xpm[] = {
"64 64 10 1",
" 	c None",
".	c #122C43",
"+	c #1B4061",
"@	c #000000",
"#	c #785A3C",
"$	c #533E29",
"%	c #25140D",
"&	c #FF7E00",
"*	c #3A2B1C",
"=	c #AD4011",
"................................................................",
"++++++++++++++++++++++++++++++++++++++++++++++++++++++++++++++++",
"++++++++++++++++++++++++++++++++++++.+++++++++++++++++++++++++++",
"++++++++++++++++.+++++++++++++++++++++++++++.+++++++++++++++++++",
"++++++++++++++++++++++++++++++++++++++++++++++++++++++++++++++++",
"++++++++++++++++++++++++++++++++++++++++++++++++++.+++++++++++++",
"++++++.+++++++++++++++++++++++++++++++++++++++++++++++++++++++++",
"++++++++++++++++++++++++++++++++++++++++++++++++++++++++++++++++",
"+++++++++++++++++++++++++++++++++++++++++.++++++++++++++.+++++++",
"++++++++++++++++++++.+++++++.+++++++++++++++++++++++++++++++++++",
"++++++++++++++++++++++++++++++++++++++++++++++++++++++++++++++++",
"................................................................",
"++++++++++++++++++++++++++++++++++++++++++++++++++++++++++++++++",
"++++++++++++++++++++++++++++++++++++++++++++++++++++++++++++++++",
"+++++++.++++++++.+++++++++++++++++++.+++++++++++++++++++++++++++",
"++++++++++++++++++++++++++++++++++++++++++++++++++.+++++++++++++",
"++++++++++++++++++++++++++++++++++++++++++++++++++++++++++++++++",
"+++++++++++++++++++++++++++.++++++++++++++++++++++++++++++++++++",
"++++++++++++++++++++++++++++++++++++++++++++++++++++++++++++++++",
"++++++++++++++++++++++++++++++++++++++.++++++++++++++++++.++++++",
"++++++.+++++++++++++++++++++++++++++++++++++++++++++++++++++++++",
"++++++++++++++++++++++++++++++++++++++++++++++++++++++++++++++++",
"................................................................",
"++++++++++++++++++++++++++++++++++++++++++++++++++++++++++++++++",
"++++++++++++++++++++++++++++++++++++++++++++++++++++++++++++++++",
"+++++++++++++.++++++++++++++.++++++++++++++++++++.++++++++++++++",
"+++++++++++++++++++.++++++++++++++++++++++++++++++++++++++++++++",
"++++++++++++++++++++++++++++++++++++++++++++++++++++++++++++++++",
"+++++++++++++++++++++++++++++++++++++++++.++++++++++++++++++++++",
"++++++++++++++++++++++++++++++++++++++++++++++++++++++++++++++++",
"++++++++++++++++++++++++++++++++++++++++++++++++++++++++++++++++",
"+++++++.+++++++@++++.++++++++++++++++++++++++++++++++++++.++++++",
"++++++++++++++@@@+++++++++++++++++.+++++++++++++++++++++++++++++",
"..............@@@...............................................",
"++++++++++++++@@@+++++++++++++++++++++++++++++++++++++++++++++++",
"++++++++++++++@@@++++++++++++++.++++++++++++++++++++++++++++++++",
"++++++++++++.+@@@++++++++++++++++++++++++.++++++++++++.+++++++++",
"++++++++++++++@@@+++++++++++++++++++++++++++++++++++++++++++++++",
"+++++++++++++@@@@+@@@@@@++++++++++++++++++++++++++++++++++++++++",
"+++++++++++@@@@@@@#####$@@++++++++++++++++++++++++++++++++++++++",
"++++++++++@@@@@@@@#####$@#@++++++++++++++++++++++++++@@+++++++++",
"+++++.++@@@@@@@@@@##@##$@#@+++++++++++++++++++.+++++@%@+++++++++",
"+++++++@@@@@@@@@@@##@##$@#$@@@@@@@@@@@@@++++++++++++@%@+++++++++",
".......@@@@@@@@@@@##@##$##$@&&&&&&&&&&&&@...@@@@...@%%@.........",
"++++++@@@@@@@@@@@@##@###$#$@&&&&&&&&&&&&@@@@****@@@%%@@+++++++++",
"++++++@@@@@@@@@@@@######$$$@&&@@@@@@@@@@@###@@****@%@%@+++++++++",
"++++++@@@@@@@@@@@@########$@&@&&&&&&&&@=@###@@@@@@@%@%@+++++++++",
"++.+++@@@@@@@@@@@@#######$$@&@&&&&&&&&@=@###@****@@@%%@+++++++++",
"++++++@@@@@@@@@@@@@######$$@&@&&&&&&&&@=@###@*****@%%%@+++++++++",
"+++++++@@@@@@@@@@@@@####$$$@@&@@@@@@@@@@@###@*****@%%%@+++++++++",
"+++++++@@@@@@@@@@@@@@@#$$$$@=@&&&&&&&&&&@@@@******@%%%@++.++++++",
"++++++++@@@@@@@@@@@@@@@$$@@===@@@&&&&&&&@=@*****@@@%@@@+++++++++",
"++++++++++@@@@@@@@@@@@@@$@@=====@@@@@@@@@=@@@@@@==@@@@+@@@@@++++",
"............@@@@@@@@@@@@@.@======@@@@@@@@=@===========@=====@...",
"+++++++++++++@@@@+++++++++@@=============@================@@++++",
"+++++++.++++++@@@++.+++++++@@@@@=========================@++++++",
"++++++++++++++@@@+++++++++++++++@@@@@@@@@@@@@=============@+++++",
"++++++++++++++@@@++++++++++.++++++++++++++++@@@@@@@@=======@@+++",
"++++++++++++++@@@++++++++++++++++++++++++++++++++++@@@@@=====@++",
"+++++++++++++++@++++++++++++++++++++++++++++++++++++++++@@@@@+++",
"++++++++++++++++++++++++++++++++++++++++++++++++++++++++++++++++",
"++++++++++++++++++++++++++++++++++++.++++++++++.++++++++++++++++",
"++++++++++++++++.+++++++++++++++++++++++++++++++++++++++++++++++",
"................................................................"};
