/* XPM */
static char * exape_0_xpm[] = {
"64 64 16 1",
" 	c None",
".	c #122C43",
"+	c #1B4061",
"@	c #3A4C63",
"#	c #546D8E",
"$	c #22B14C",
"%	c #000000",
"&	c #785A3C",
"*	c #533E29",
"=	c #AD4011",
"-	c #FF7E00",
";	c #464646",
">	c #3A2B1C",
",	c #177B35",
"'	c #303030",
")	c #25140D",
"................................................................",
"++++++++++++++++++++++++++++++++++++++++++++++++++++++++++++++++",
"++++++++++++++++++++++++++++++@@@+++.+++++++++++++++++++++++++++",
"++++++++++++++++.+++########@@$$$@@########+.+++++++++++++++++++",
"++++++++++++++##############@$$$$$@##############+++++++++++++++",
"++++++++++++###############@$$$$$$$@###############+++++++++++++",
"++++++.++++@###############@$$$$$$$@###############@++++++++++++",
"+++++++++++@@##############@@@@@@@@@###############@++++++++++++",
"++++++++++++@@@#################################@@@+++++.+++++++",
"++++++++++++++@@@@@@#######################@@@@@@+++++++++++++++",
"++++++++++++++@#++++@@@@@@@@@@@@@@@@@@@@@@@++++#@+++++++++++++++",
"..............@#...........%%%%%%%%%%..........#@...............",
"++++++++++++++@#+++++++++++%%%%%%%%%%%+++++++++#@+++++++++++++++",
"++++++++++++++@#+++++++++%%%%%%%%%%%%%+++++++++#@+++++++++++++++",
"+++++++.++++++@#.++++++++%%%%%%%%%%%%%%++++++++#@+++++++++++++++",
"++++++++++++++@#++++++++%%%%%%%%%%%%%%%%+++++++#@+.+++++++++++++",
"++++++++++++++@#++++++++%%%%%%%%%%%%%%%%+++++++#@+++++++++++++++",
"++++++++++++++@#+++%%%%%%%%%%%%%%%%%%%%%%%%%%%+#@+++++++++++++++",
"++++++++++++++@#++%%%%%%%%%%%%%%%%%%%%%%%%%%%%%#@+++++++++++++++",
"++++++++++++++@#+++%%%%%%%%%%%%%%%%%%%%%%%%%%%+#@++++++++.++++++",
"++++++.+++++++@#++++++++%%%%%&&&&&&&&&&%+++++++#@+++++++++++++++",
"++++++++++++++@#++++++++%%%%%&%%%%&%%%%%+++++++#@+++++++++++++++",
"..............@#........%%%%&&&%%&&&%%&%.......#@...............",
"++++++++++++++@#++++++++%%%&&&&%%&&&%%&%+++++++#@+++++++++++++++",
"++++++++++++++@#++++++++%%&&&&&&&&&&&&&%+++++++#@+++++++++++++++",
"+++++++++++++.@#++++++++%%*&&&&*****&&%++++++++#@.++++++++++++++",
"++++++++++++++@#+++.++++%***&&*&&&&&**%++++++++#@+++++++++++++++",
"++++++++++++++@#+++++++%%%*****&%%%%*%%++++++++#@+++++++++++++++",
"++++++++++++++@#+++++%%=%%%%**&&&&&&*%=%+.+++++#@+++++++++++++++",
"++++++++++++++@#++++%%======%*******%===%++++++#@+++++++++++++++",
"++++++++++++++@#++%%=========%%%%%%%===%+++++++#@+++++++++++++++",
"+++++++.++++++@#+%====================%%+++++++#@++++++++.++++++",
"++++++++++++++@#%====================%%%+++++++#@+++++++++++++++",
"..............@#%====================%-%%%.....#@...............",
"++++++++++++++@#%===================%----%%++++#@+++++++++++++++",
"++++++++++++++@#==%=================%------%+++#@+++++++++++++++",
"++++++++++++.+@#=%+%==============%%%%%----%+++#@+++++.+++++++++",
"++++++++++++++@#%++%=============%%-%%%----%+++#@+++++++++++++++",
"++++++++++++++@#%+%=============%---%+%%----%++#@+++++++++++++++",
"++++++++++++++@#++%============%----%++%----%++#@+++++++++++++++",
"++++++++++++++@#+%=============%----%++%%%--%++#@+++++++++++++++",
"+++++.++++++++@#%=============%-----%++%=%%%%+.#@+++++++++++++++",
"++++++++++++++@#===%%%=======%-----%%++%%==%+++#@+++++++++++++++",
"..............@#===%%%%======%%%%%%%....%%%%...#@...............",
"++++++++++++++@#==%&&&%%====%=======%++%&&&&%++#@+++++++++++++++",
"++++++++++++++@#=%&&&&&%%===%%%%%%%%%%%&&;;&%%+#@.++++++++++++++",
"++++++++++++++@#=%&&&&&%%%=%>>>>>>>>>>%&&$,&&%+#@+++++++++++++++",
"++.+++++++++++@#%+%&&&%%>%=%>>>>>>>>>>%%$$$,%++#@+++++++++++++++",
"++++++++++++++@#+++%%%+%>>%>>>%>>>>>>>%+$$$,+++#@+++++++++++++++",
"++++++++++++++@#+++++++%>>>>>%+%%>>>>>>%+$$++++#@+++++++++++++++",
"++++++++++++++@#+++++++%>>>>>%+++%>>>>>%+''++++#@++++++++.++++++",
"+++++++++++.++@#+++++++%%%%%%%++++%%%%%++;'.+++#@+++++++++++++++",
"++++++++++++++@#+++++++%)))))%++++%)))%++;'++++#@+++++++++++++++",
"..............@#....###%)))))%####%%))%##;;....#@...............",
"++++++++++++++@########%))))%%#####%)))%%%%#####@+++++++++++++++",
"+++++++.++++##########%%))))%######%)))));;########+++++++++++++",
"+++++++++++@#########%%)))))%#####%)))))))%########@+.++++++++++",
"+++++++++++@#########%%%%%%%%#####%%%%%%%%%########@++++++++++++",
"++++++++++++@@@#################################@@@+++++++++++++",
"++++++++++++++@@@@@@@#####################@@@@@@@+++++++++++++++",
"++++++++++++++++++++@@@@@@@@@@@@@@@@@@@@@@@+++++++++++++++++++++",
"++++++++++++++++++++++++++++++++++++.++++++++++.++++++++++++++++",
"++++++++++++++++.+++++++++++++++++++++++++++++++++++++++++++++++",
"................................................................"};
