/* XPM */
static char * exape_9_xpm[] = {
"64 64 11 1",
" 	c None",
".	c #122C43",
"+	c #1B4061",
"@	c #3A4C63",
"#	c #546D8E",
"$	c #22B14C",
"%	c #A8E61D",
"&	c #303030",
"*	c #000000",
"=	c #464646",
"-	c #25140D",
"................................................................",
"++++++++++++++++++++++++++++++++++++++++++++++++++++++++++++++++",
"++++++++++++++++++++++++++++++@@@+++.+++++++++++++++++++++++++++",
"++++++++++++++++.+++########@@$$$@@########+.+++++++++++++++++++",
"++++++++++++++##############@$$$$$@##############+++++++++++++++",
"++++++++++++###############@$$$$$$$@###############+++++++++++++",
"++++++.++++@###############@$$$$$$$@###############@++++++++++++",
"+++++++++++@@##############@@@@@@@@@###############@++++++++++++",
"++++++++++++@@@#################################@@@+++++.+++++++",
"++++++++++++++@@@@@@#######################@@@@@@+++++++++++++++",
"++++++++++++++@#++++@@@@@@@@@@@@@@@@@@@@@@@++++#@+++++++++++++++",
"..............@#...............................#@...............",
"++++++++++++++@#+++++++++++++++++++++++++++++++#@+++++++++++++++",
"++++++++++++++@#+++++++++++++++++++++++++++++++#@+++++++++++++++",
"+++++++.++++++@#.+++++++++++++++++++.++++++++++#@+++++++++++++++",
"++++++++++++++@#+++++++++++++++++++++++++++++++#@+.+++++++++++++",
"++++++++++++++@#+++++++++++++++++++++++++++++++#@+++++++++++++++",
"++++++++++++++@#+++++++++++.+++++++++++++++++++#@+++++++++++++++",
"++++++++++++++@#+++++++++++++++++++++++++++++++#@+++++++++++++++",
"++++++++++++++@#++++++++++++++++++++++.++++++++#@++++++++.++++++",
"++++++.+++++++@#+++++++++++++++++++++++++++++++#@+++++++++++++++",
"++++++++++++++@#+++++++++++++++++++++++++++++++#@+++++++++++++++",
"..............@#...............................#@...............",
"++++++++++++++@#+++++++++++++++++++++++++++++++#@+++++++++++++++",
"++++++++++++++@#+++++++++++++++++++++++++++++++#@+++++++++++++++",
"+++++++++++++.@#++++++++++++.++++++++++++++++++#@.++++++++++++++",
"++++++++++++++@#+++.+++++++++++++++++++++++++++#@+++++++++++++++",
"++++++++++++++@#+++++++++++++++++++++++++++++++#@+++++++++++++++",
"++++++++++++++@#+++++++++++++++++++++++++.+++++#@+++++++++++++++",
"++++++++++++++@#+++++++++++++++++++++++++++++++#@+++++++++++++++",
"++++++++++++++@#+++++++++++++++++++++++++++++++#@+++++++++++++++",
"+++++++.++++++@#++++.++++++++++++++++++++++++++#@++++++++.++++++",
"++++++++++++++@#++++++++++++++++++.++++++++++++#@+++++++++++++++",
"..............@#...............................#@...............",
"++++++++++++++@#+++++++++++++++++++++++++++++++#@+++++++++++++++",
"++++++++++++++@#+++++++++++++++.+++++++++++++++#@+++++++++++++++",
"++++++++++++.+@#+++++++++++++++++++++++++.+++++#@+++++.+++++++++",
"++++++++++++++@#+++++++++++++++++++++++++++++++#@+++++++++++++++",
"++++++++++++++@#+++++++++++++++++++++++++++++++#@+++++++++++++++",
"++++++++++++++@#+++++++++++++++++++++++++++++++#@+++++++++++++++",
"++++++++++++++@#+++++++++++++++++++++++++++++++#@+++++++++++++++",
"+++++.++++++++@#++++++++++.+++++++++++++++++++.#@+++++++++++++++",
"++++++++++++++@#+++++++++++++++++++++++++++++++#@+++++++++++++++",
"..............@#...............................#@...............",
"++++++++++++++@#+++++++++++++++++++++++++++++++#@+++++++++++++++",
"++++++++++++++@#+++++++++++++++++++++++++++++++#@.++++++++++++++",
"++++++++++++++@#++.+++%%%%%%%%%%%%%%%%%%%++++++#@+++++++++++++++",
"++.+++++++++++@#+%%%%%%%%%%%%%%%%%%%%%%%%%%%%%+#@+++++++++++++++",
"++++++++++++++@#%%%%%%%%%%%%%%%%%%%%%%%%%%%%%%%#@+++++++++++++++",
"++++++++++++++@#+%%%%%%%%%%%%%%%%%%%%%%%%%%%%%+#@+++++++++++++++",
"++++++++++++++@#++++++%%%%%%%%%%%%%%%%%%%&&++++#@++++++++.++++++",
"+++++++++++.++@#+++++++*******++++*****++=&.+++#@+++++++++++++++",
"++++++++++++++@#+++++++*-----*++++*---*++=&++++#@+++++++++++++++",
"..............@#....###*-----*####**--*##==....#@...............",
"++++++++++++++@########*----**#####*---****#####@+++++++++++++++",
"+++++++.++++##########**----*######*-----==########+++++++++++++",
"+++++++++++@#########**-----*#####*-------*########@+.++++++++++",
"+++++++++++@#########********#####*********########@++++++++++++",
"++++++++++++@@@#################################@@@+++++++++++++",
"++++++++++++++@@@@@@@#####################@@@@@@@+++++++++++++++",
"++++++++++++++++++++@@@@@@@@@@@@@@@@@@@@@@@+++++++++++++++++++++",
"++++++++++++++++++++++++++++++++++++.++++++++++.++++++++++++++++",
"++++++++++++++++.+++++++++++++++++++++++++++++++++++++++++++++++",
"................................................................"};
