/* XPM */
static char * ghost_catched_b_xpm[] = {
"64 64 6 1",
" 	c None",
".	c #122C43",
"+	c #1B4061",
"@	c #000000",
"#	c #FFFFFF",
"$	c #00B7EF",
"................................................................",
"++++++++++++++++++++++++++++++++++++++++++++++++++++++++++++++++",
"++++++++++++++++++++++++++++++++++++.+++++++++++++++++++++++++++",
"++++++++++++++++.+++++++++++++++++++++++++++.+++++++++++++++++++",
"++++++++++++++++++++++++++++++++++++++++++++++++++++++++++++++++",
"++++++++++++++++++++++++++++++++++++++++++++++++++.+++++++++++++",
"++++++.+++++++++++++++++++++++++++++++++++++++++++++++++++++++++",
"++++++++++++++++++++++++++++++++++++++++++++++++++++++++++++++++",
"+++++++++++++++++++++++++++++++++++++++++.++++++++++++++.+++++++",
"++++++++++++++++++++.+++++++.++++++++++++@@@++++++++++++++++++++",
"++++++++++++++++++++++++++++++++++++++@@@@##@@@@++++++++++++++++",
".....................................@@########@@...............",
"++++++++++++++++++++++++++++++++++++@@###########@++++++++++++++",
"+++++++++++++++++++++++++++++++++++@@#############@+++++++++++++",
"+++++++.++++++++.+++++++++++++++++@@###+#@#@#+####@@++++++++++++",
"+++++++++++++++++++++++++++++++++@@###+#@###@#+####@++++++++++++",
"+++++++++++++++++++++++++++++++++@#####@@###@@#####@++++++++++++",
"+++++++++++++++++++++++++++.+++++@####@@@@#@@@@####@@+++++++++++",
"++++++++++++++++++++++++++++++++@####@@@@@#@@@@@####@+++++++++++",
"++++++++++++++++++++++++++++++++@###@@@#@@#@@#@@@###@++++.++++++",
"++++++.+++++++++++++++++++++++++@##@#@@#@@#@@#@@#@##@+++++++++++",
"+++++++++++++++++++++++++++++++@@####@@#@@#@@#@@####@+++++++++++",
"...............................@#####@@#@@#@@#@@####@...........",
"+++++++++++++++++++++++++++++++@#####@@#@@#@@#@@####@+++++++++++",
"+++++++++++++++++++++++++++++++@#####@@@@@#@@@@@###@++++++++++++",
"+++++++++++++.++++++++++++++.+@######@@@@@#@@@@@###@++++++++++++",
"+++++++++++++++++++.++++++++++@#######@@@###@@@####@++++++++++++",
"++++++++++++++++++++++++++++++@#####$#@@@###@@@###@@++++++++++++",
"+++++++++++++++++++++++++++++@@#####$##@#####@####@+++++++++++++",
"+++++++++++++++++++++++++++++@#####$$$###########@@+++++++++++++",
"++++++++++++++++++++++++++++@@#####$$$###########@++++++++++++++",
"+++++++.++++++++++++.+++++++@#######$###########@@+++++++.++++++",
"+++++++++++++++++++++++++++@@###################@+++++++++++++++",
"..........................@@###################@@...............",
"++++++++++++++++++++++++++@####################@++++++++++++++++",
"+++++++++++++++++++++++++@@###################@+++++++++++++++++",
"++++++++++++.++++++++++++@###################@@+++++++.+++++++++",
"++++++++++++++++++++++++@###################@@++++++++++++++++++",
"+++++++++++++++++++++++@###################@@+++++++++++++++++++",
"++++++++++++++++++++++@###################@@++++++++++++++++++++",
"+++++++++++++++++++++@@##################@@+++++++++++++++++++++",
"+++++.++++++++++++++@@##################@@++++.+++++++++++++++++",
"+++++++++++++++++++@##################@@@+++++++++++++++++++++++",
".................@@#################@@@.........................",
"+++++++++++++++@@@################@@@+++++++++++++++++++++++++++",
"++++++++++++@@@@##############@@@@+++++++++++++++.++++++++++++++",
"++++++++++@@@###########@@@@@@@+++++++++++++++++++++++++++++++++",
"++.+++++++++@@@@@@@@@@@@@++++++++++.++++++++++++++++++++++++++++",
"++++++++++++++++++++++++++++++++++++++++++++++++++++++++++++++++",
"++++++++++++++++++++++++++++++++++++++++++++++++++++++++++++++++",
"+++++++++++++++++++++++++++++++++++++++++++++++++++++++++.++++++",
"+++++++++++.+++++++++++++++.+++++++++++++++.++++++++++++++++++++",
"++++++++++++++++++++++++++++++++++++++++++++++++++++++++++++++++",
"................................................................",
"++++++++++++++++++++++++++++++++++++++++++++++++++++++++++++++++",
"+++++++.+++++++++++.++++++++++++++++++++.+++++++++++++++++++++++",
"+++++++++++++++++++++++++++++++++++++++++++++++++++++.++++++++++",
"+++++++++++++++++++++++++++.++++++++++++++++++++++++++++++++++++",
"++++++++++++++++++++++++++++++++++++++++++++++++++++++++++++++++",
"++++++++++++++++++++++++++++++++++++++++++++++++++++++++++++++++",
"++++++++++++++++++++++++++++++++++++++++++++++++++++++++++++++++",
"++++++++++++++++++++++++++++++++++++.++++++++++.++++++++++++++++",
"++++++++++++++++.+++++++++++++++++++++++++++++++++++++++++++++++",
"................................................................"};
