/* XPM */
static char * ghost_idle_0_xpm[] = {
"64 64 5 1",
" 	c None",
".	c #122C43",
"+	c #1B4061",
"@	c #000000",
"#	c #FFFFFF",
"................................................................",
"++++++++++++++++++++++++++++++++++++++++++++++++++++++++++++++++",
"++++++++++++++++++++++++++++++++++++.+++++++++++++++++++++++++++",
"++++++++++++++++.+++++++++++++++++++++++++++.+++++++++++++++++++",
"++++++++++++++++++++++++++++++++++++++++++++++++++++++++++++++++",
"++++++++++++++++++++++++++++++++++++++++++++++++++.+++++++++++++",
"++++++.+++++++++++++++++++++++++++++++++++++++++++++++++++++++++",
"++++++++++++++++++++++++++++++++++++++++++++++++++++++++++++++++",
"+++++++++++++++++++++++++++++++++++++++++.++++++++++++++.+++++++",
"++++++++++++++++++++.+++++++.+++++++++++++++++++++++++++++++++++",
"+++++++++++++++++++++++++++++++++++++++++@@@++++++++++++++++++++",
"......................................@@@@##@@@@................",
"+++++++++++++++++++++++++++++++++++++@@########@@+++++++++++++++",
"++++++++++++++++++++++++++++++++++++@@###########@++++++++++++++",
"+++++++.++++++++.++++++++++++++++++@@#############@+++++++++++++",
"++++++++++++++++++++++++++++++++++@@###@#####@####@@++++++++++++",
"+++++++++++++++++++++++++++++++++@@###@@@###@@@####@++++++++++++",
"+++++++++++++++++++++++++++.+++++@####@@@###@@@####@++++++++++++",
"+++++++++++++++++++++++++++++++++@###@@@@@#@@@@@###@@+++++++++++",
"++++++++++++++++++++++++++++++++@####@@@@@#@@@@@####@++++.++++++",
"++++++.+++++++++++++++++++++++++@####@@#@@#@@#@@####@+++++++++++",
"++++++++++++++++++++++++++++++++@####@@#@@#@@#@@####@+++++++++++",
"...............................@@####@@#@@#@@#@@####@...........",
"+++++++++++++++++++++++++++++++@#####@@#@@#@@#@@####@+++++++++++",
"+++++++++++++++++++++++++++++++@#####@@#@@#@@#@@####@+++++++++++",
"+++++++++++++.++++++++++++++.++@#####@@@@@#@@@@@###@++++++++++++",
"+++++++++++++++++++.++++++++++@######@@@@@#@@@@@###@++++++++++++",
"++++++++++++++++++++++++++++++@#######@@@###@@@####@++++++++++++",
"++++++++++++++++++++++++++++++@#######@@@###@@@###@@++++++++++++",
"+++++++++++++++++++++++++++++@@########@#####@####@+++++++++++++",
"+++++++++++++++++++++++++++++@###################@@+++++++++++++",
"+++++++.++++++++++++.+++++++@@###################@+++++++.++++++",
"++++++++++++++++++++++++++++@###################@@++++++++++++++",
"...........................@@###################@...............",
"++++++++++++++++++++++++++@@###################@@+++++++++++++++",
"++++++++++++++++++++++++++@####################@++++++++++++++++",
"++++++++++++.++++++++++++@@###################@+++++++.+++++++++",
"+++++++++++++++++++++++++@###################@@+++++++++++++++++",
"++++++++++++++++++++++++@###################@@++++++++++++++++++",
"+++++++++++++++++++++++@###################@@+++++++++++++++++++",
"++++++++++++++++++++++@###################@@++++++++++++++++++++",
"+++++.+++++++++++++++@@##################@@+++.+++++++++++++++++",
"++++++++++++++++++++@@##################@@++++++++++++++++++++++",
"...................@##################@@@.......................",
"+++++++++++++++++@@#################@@@+++++++++++++++++++++++++",
"+++++++++++++++@@@################@@@++++++++++++.++++++++++++++",
"++++++++++++@@@@##############@@@@++++++++++++++++++++++++++++++",
"++.+++++++@@@###########@@@@@@@++++.++++++++++++++++++++++++++++",
"++++++++++++@@@@@@@@@@@@@+++++++++++++++++++++++++++++++++++++++",
"++++++++++++++++++++++++++++++++++++++++++++++++++++++++++++++++",
"+++++++++++++++++++++++++++++++++++++++++++++++++++++++++.++++++",
"+++++++++++.+++++++++++++++.+++++++++++++++.++++++++++++++++++++",
"++++++++++++++++++++++++++++++++++++++++++++++++++++++++++++++++",
"................................................................",
"++++++++++++++++++++++++++++++++++++++++++++++++++++++++++++++++",
"+++++++.+++++++++++.++++++++++++++++++++.+++++++++++++++++++++++",
"+++++++++++++++++++++++++++++++++++++++++++++++++++++.++++++++++",
"+++++++++++++++++++++++++++.++++++++++++++++++++++++++++++++++++",
"++++++++++++++++++++++++++++++++++++++++++++++++++++++++++++++++",
"++++++++++++++++++++++++++++++++++++++++++++++++++++++++++++++++",
"++++++++++++++++++++++++++++++++++++++++++++++++++++++++++++++++",
"++++++++++++++++++++++++++++++++++++.++++++++++.++++++++++++++++",
"++++++++++++++++.+++++++++++++++++++++++++++++++++++++++++++++++",
"................................................................"};
