/* XPM */
static char * king_attack_right_3_xpm[] = {
"64 64 15 1",
" 	c None",
".	c #122C43",
"+	c #1B4061",
"@	c #FFA3B1",
"#	c #ED1C24",
"$	c #A61419",
"%	c #4E226A",
"&	c #37184A",
"*	c #FFF200",
"=	c #000000",
"-	c #FFFFFF",
";	c #740E11",
">	c #510A0C",
",	c #9C5A3C",
"'	c #B2B2B2",
"................................................................",
"++++++++++++++++++++++++++++++++++++++++++++++++++++++++++++++++",
"++++++++++++++++++++++++++++++++++++.+++++++++++++++++++++++++++",
"++++++++++++++++.+++++++++++++++++++++++++++.+++++++++++++@+++++",
"++++++++++++++++++++++++++++++++++++++++++++++++++++++++@@@+++++",
"++++++++++++++++++++++++++++++++++++++++++++++++++#$+++@@+++++++",
"++++++.+++++++++++++++++++++++++++++++++++++++++++#%&++@++++++++",
"++++++++++++++++*++++++*++++++*++++++*++++++++++++%#%&+@++++++++",
"++++++++++++++++**++++***++++***++++**+++.++++@@@+$%%&+@.+++++++",
"++++++++++++++++***+.*****++*****++***++++++++@+@+%%$&+@++++++++",
"++++++++++++++++**********************++++++++@+@+%%%&++++++++++",
"................***%****%****%****%***..........@.%#%&..........",
"++++++++++++++++**%&%**%&%**%&%**%&%**++++++++++@+%%%&++++++++++",
"++++++++++++++++***%****%****%****%***+++++++++++@%%%$+++@++++++",
"+++++++.++++++++**********************++++++++++++%%%&++@@++++++",
"++++++++++++++++**********************++++++++++++%%%#+++@++++++",
"++++++++++++++++++==--------------==++++++++++++++%%$&++++@+++++",
"++++++++++++++++++=----------------=++++++++++++++%%%&+@@@++++++",
"+++++++++++++++++==----------------==+++++++++++++%%%&+++@++++++",
"+++++++++++++++++=------------------=+.++++++++@++%%%#+++.++++++",
"++++++.++++++++++=--=-------------=-=++++++++++@++%%%&++++++++++",
"+++++++++++++++++=---=-----------=--==++++++++@@++%%%&++++++++++",
".................=----=---------=----=..........@@%%%&..........",
"+++++++++++++++++=---===-------===---=+++++++++++@%%;&+++@++++++",
"++++++++++++++++==---====-----====---=++++++++++@+%%%&+@@@++++++",
"+++++++++++++.++=---======---======--=++++++++++@.%%%&+@++++++++",
"++++++++++++++++=---===#===-===#===--=++++++++++++%%%&+@@+++++++",
"++++++++++++++++=---===#===-===#===--=+++++++++++-%%%&+@++++++++",
"++++++++++++++++=---===#===-===#===--=+++.++++++++%%%>+@++++++++",
"++++++++++++++++=---===#===-===#===--=+++++++++@++%%%&++++++++++",
"++++++++++++++++=---===#===-===#===--=+++++++++@++%%%&++++++++++",
"+++++++.++++++++=---===#===-===#===--=+++++++++@@+%%%&+++.++++++",
"++++++++++++++++=----==#==---==#==---=++++++++++@+%%%&++++++++++",
"................=----=====---=====---=..........@.%%%&..........",
"++++++++++++++++=----=====---=====---=++++++++++@+%%%&++++++++++",
"+++++++++++++++=------===-----===----=++++++++++@+%%%&++++++++++",
"++++++++++++.++=---------------------=+++.++++++++%%%&.+++++++++",
"+++++++++++++++=---------------------=++++++++++++%%%&++++++++++",
"+++++++++++++++=---------------------=+++++++,,,,,,,,,,,,,,+++++",
"++++++++++++++==---------------------=++++++,,+++++,,+++++,,++++",
"++++++++++++++=----------------------=+++++++++=====,+++++++++++",
"+++++.++++++++=---------------------==+++++++==-----=====+++++++",
"++++++++++++++=---------------------=+++=+++=''-----='---=++++++",
".............==---------------------=..=-==='---'=--='---=......",
"+++++++++++++=---------------------==++=-'''----'=--=====+++++++",
"+++++++++++++=---------------------=+++=--------'=--='---=++++++",
"++++++++++++==--------------------==+++=--------'=--='---=++++++",
"++.+++++++++=---------------------=.+++=---------'=======+++++++",
"+=+++++++++=----------------------=++++=---------'=------=++++++",
"+==+++++++==---------------------==++++=---------'=''----=++++++",
"+=-=+++++=-----------------------=+++++=-'''------'======.++++++",
"+=--==++==----------------------=++++++=-===''---'=-----=+++++++",
"+=---====----------------------==+++++++=+++=='--'=-----=+++++++",
".=----------------------------==..............==========........",
"+=--------------------------==+++++++++++++++++++++,,+++++++++++",
"++==-----------------------==+++++++++++.++++++++++,,+++++++++++",
"+++==-------------------===++++++++++++++++++++++++,,.++++++++++",
"++++==---------------====++.+++++++++++++++++++++++,,+++++++++++",
"+++++===----==========++++++++++++++++++++++++++++++++++++++++++",
"+++++++======+++++++++++++++++++++++++++++++++++++++++++++++++++",
"++++++++++++++++++++++++++++++++++++++++++++++++++++++++++++++++",
"++++++++++++++++++++++++++++++++++++.++++++++++.++++++++++++++++",
"++++++++++++++++.+++++++++++++++++++++++++++++++++++++++++++++++",
"................................................................"};
