/* XPM */
static char * king_lidle_1_xpm[] = {
"64 64 15 1",
" 	c None",
".	c #122C43",
"+	c #1B4061",
"@	c #FFA3B1",
"#	c #A61419",
"$	c #ED1C24",
"%	c #37184A",
"&	c #4E226A",
"*	c #FFF200",
"=	c #000000",
"-	c #FFFFFF",
";	c #740E11",
">	c #510A0C",
",	c #9C5A3C",
"'	c #B2B2B2",
"................................................................",
"++++++++++++++++++++++++++++++++++++++++++++++++++++++++++++++++",
"++++++++@+++++++++++++++++++++++++++.+++++++++++++++++++++++++++",
"++++++++@+++#$++.+++++++++++++++++++++++++++.+++++++++++++++++++",
"++++++++@++%&$++++++++++++++++++++++++++++++++++++++++++++++++++",
"+++++++@++%&$&++++++++++++*++++++*++++++*++++++*++.+++++++++++++",
"++++++.@++%&&#++++++++++++**++++***++++***++++**++++++++++++++++",
"+++++++@++%#&&+@++++++++++***++*****++*****++***++++++++++++++++",
"+++++++@@+%&&&+@++++++++++**********************++++++++.+++++++",
"++++++++@+%&$&+@++++.+++++***&****&****&****&***++++++++++++++++",
"++++++++++%&&&+@++++++++++**&%&**&%&**&%&**&%&**++++++++++++++++",
"..........#&&&..@.........***&****&****&****&***................",
"++++++++++%&&&++@+++++++++**********************++++++++++++++++",
"++++++++++$&&&@@++++++++++**********************++++++++++++++++",
"+++++++.++%#&&++.+++++++++++==--------------==++++++++++++++++++",
"++++++++++%&&&++@+++++++++++=----------------=++++.+++++++++++++",
"++++++++@+%&&&++@@+++++++++==----------------==+++++++++++++++++",
"++++++++@+$&&&+++@+++++++++=------------------=+++++++++++++++++",
"+++++++@@+%&&&++@++++++++++=-=-------------=--=+++++++++++++++++",
"+++++++@++%&&&++@+++++++++==--=-----------=---=++++++++++.++++++",
"++++++.@++%&&&+@@+++++++++=----=---------=----=+++++++++++++++++",
"+++++++@++%;&&++++++++++++=---===-------===---=+++++++++++++++++",
".......@..%&&&............=---====-----====---==................",
"++++++++@+%&&&++++++++++++=--======---======---=++++++++++++++++",
"++++++++++%&&&+@@+++++++++=--===$===-===$===---=++++++++++++++++",
"++++++++++%&&&-+@+++++++++=--===$===-===$===---=+.++++++++++++++",
"++++++++++>&&&+++@+.++++++=--===$===-===$===---=++++++++++++++++",
"+++++++@++%&&&+++@++++++++=--===$===-===$===---=++++++++++++++++",
"+++++++@++%&&&+@@+++++++++=--===$===-===$===---=++++++++++++++++",
"+++++++@@+%&&&+@++++++++++=--===$===-===$===---=++++++++++++++++",
"++++++++@+%&&&++++++++++++=---==$==---==$==----=++++++++++++++++",
"+++++++.@+%&&&++++++.+++++=---=====---=====----=+++++++++.++++++",
"++++++++@+%&&&++++++++++++=---=====---=====----=++++++++++++++++",
"..........%&&&............=----===-----===------=...............",
"++++++++++%&&&++++++++++++=---------------------=+++++++++++++++",
"++++++++++%&&&++++++++++++=---------------------=+++++++++++++++",
"+++++,,,,,,,,,,,,,,+++++++=---------------------=+++++.+++++++++",
"++++,,+++++,,+++++,,++++++=---------------------==++++++++++++++",
"+++++++++++,=====+++++++++=----------------------=++++++++++++++",
"+++++++=====-----==+++++++==---------------------=++++++++++++++",
"++++++=---'=-----''=+++=+++=---------------------=++++++++++++++",
"+++++.=---'=--='---'===-=+.=---------------------==+++++++++++++",
"+++++++=====--='----'''-=++==---------------------=+++++++++++++",
"......=---'=--='--------=...=---------------------=.............",
"++++++=---'=--='--------=+++==--------------------==++++++++++++",
"+++++++======='---------=++++=---------------------=++++++++++++",
"++++++=------='---------=++++=----------------------=+++++++++++",
"++.+++=----''='---------=++++==---------------------==++++++++++",
"+++++++======'------'''-=+++++=-----------------------==++++++++",
"+++++++=-----='---''===-=++++++=-----------------------==+++++++",
"+++++++=-----='--'==+++=+++++++==-----------------------==++++++",
"++++++++==========+++++++++.++++==-----------------------===++++",
"+++++++++++,,+++++++++++++++++++++==-----------------------==+++",
"...........,,......................==-----------------------==..",
"+++++++++++,,++++++++++++++++++++++++===---------------------==+",
"+++++++.+++,,++++++.+++++++++++++++++++====-----------------===+",
"++++++++++++++++++++++++++++++++++++++++++==========------===+++",
"+++++++++++++++++++++++++++.+++++++++++++++++++++++========+++++",
"++++++++++++++++++++++++++++++++++++++++++++++++++++++++++++++++",
"++++++++++++++++++++++++++++++++++++++++++++++++++++++++++++++++",
"++++++++++++++++++++++++++++++++++++++++++++++++++++++++++++++++",
"++++++++++++++++++++++++++++++++++++.++++++++++.++++++++++++++++",
"++++++++++++++++.+++++++++++++++++++++++++++++++++++++++++++++++",
"................................................................"};
