/* XPM */
static char * king_attack_right_2_xpm[] = {
"64 64 13 1",
" 	c None",
".	c #122C43",
"+	c #1B4061",
"@	c #FFF200",
"#	c #4E226A",
"$	c #37184A",
"%	c #000000",
"&	c #FFFFFF",
"*	c #FFA3B1",
"=	c #ED1C24",
"-	c #510A0C",
";	c #9C5A3C",
">	c #B2B2B2",
"................................................................",
"++++++++++++++++++++++++++++++++++++++++++++++++++++++++++++++++",
"++++++++++++++++++++++++++++++++++++.+++++++++++++++++++++++++++",
"++++++++++++++++.+++++++++++++++++++++++++++.+++++++++++++++++++",
"++++++++++++++++++++++++++++++++++++++++++++++++++++++++++++++++",
"++++++++++++++++++++++++++++++++++++++++++++++++++.+++++++++++++",
"++++++.+++++++++++++++++++++++++++++++++++++++++++++++++++++++++",
"++++++++++++++++@++++++@++++++@++++++@++++++++++++++++++++++++++",
"++++++++++++++++@@++++@@@++++@@@++++@@+++.++++++++++++++.+++++++",
"++++++++++++++++@@@+.@@@@@++@@@@@++@@@++++++++++++++++++++++++++",
"++++++++++++++++@@@@@@@@@@@@@@@@@@@@@@++++++++++++++++++++++++++",
"................@@@#@@@@#@@@@#@@@@#@@@..........................",
"++++++++++++++++@@#$#@@#$#@@#$#@@#$#@@++++++++++++++++++++++++++",
"++++++++++++++++@@@#@@@@#@@@@#@@@@#@@@++++++++++++++++++++++++++",
"+++++++.++++++++@@@@@@@@@@@@@@@@@@@@@@++++++++++++++++++++++++++",
"++++++++++++++++@@@@@@@@@@@@@@@@@@@@@@++++++++++++.+++++++++++++",
"++++++++++++++++++%%&&&&&&&&&&&&&&%%++++++++++++++++++++++++++++",
"++++++++++++++++++%&&&&&&&&&&&&&&&&%++++++++++++++++++++++++++++",
"+++++++++++++++++%%&&&&&&&&&&&&&&&&%%+++++++++++++++++++++++++++",
"+++++++++++++++++%&&&&&&&&&&&&&&&&&&%+.++++++++++++++++++.++++++",
"++++++.++++++++++%&&%&&&&&&&&&&&&&%&%+++++++++++++++++++++++++++",
"+++++++++++++++++%&&&%&&&&&&&&&&&%&&%%++++++++++++++++++++++++++",
".................%&&&&%&&&&&&&&&%&&&&%..........................",
"+++++++++++++++++%&&&%%%&&&&&&&%%%&&&%++++++++++++++++++++++++++",
"++++++++++++++++%%&&&%%%%&&&&&%%%%&&&%++++++++++++++++++++++++++",
"+++++++++++++.++%&&&%%%%%%&&&%%%%%%&&%+++++++++++.+++++++++++*++",
"++++++++++++++++%&&&%%%=%%%&%%%=%%%&&%+++++++++++++++++++++**+++",
"++++++++++++++++%&&&%%%=%%%&%%%=%%%&&%+++++++++++++++++++++++++#",
"++++++++++++++++%&&&%%%=%%%&%%%=%%%&&%+++.+++++++++++++++++**+##",
"++++++++++++++++%&&&%%%=%%%&%%%=%%%&&%++++++++++++++++++++***###",
"++++++++++++++++%&&&%%%=%%%&%%%=%%%&&%+++++++++++++++++++**+####",
"+++++++.++++++++%&&&%%%=%%%&%%%=%%%&&%+++++++++++++++++++.+####$",
"++++++++++++++++%&&&&%%=%%&&&%%=%%&&&%++++++++++++++++*++&####$$",
"................%&&&&%%%%%&&&%%%%%&&&%...............*...####$$.",
"++++++++++++++++%&&&&%%%%%&&&%%%%%&&&%+++++++++++++++*++####$$+*",
"+++++++++++++++%&&&&&&%%%&&&&&%%%&&&&%++++++++++++++**+####$$+*+",
"++++++++++++.++%&&&&&&&&&&&&&&&&&&&&&%%+%.+++++++++**+####$-+**+",
"+++++++++++++++%&&&&&&&&&&&&&&&&&&&&&%%&++++;;;+++**+####$$+*+++",
"+++++++++++++++%&&&&&&&&&&&&&&&&&&&&%%&>%++++;+;++++####$$++++++",
"++++++++++++++%%&&&&&&&&&&&&&&&&&&&%%&&>>%%%%+++;++####$$+++++++",
"++++++++++++++%&&&&&&&&&&&&&&&&&&&%%&&&&>&>>>%%++;####$$++++++++",
"+++++.++++++++%&&&&&&&&&&&&&&&&&&%%&&&&&&&&&>&&%++;##$$+++++++++",
"++++++++++++++%&&&&&&&&&&&&&&&&&%%&&&&&&&&&&&&&&%;;;$$++++++++++",
".............%%&&&&&&&&&&&&&&&&&&&%>&&&&&&&&>%&&&%;.;...........",
"+++++++++++++%&&&&&&&&&&&&&&&&&&&&%%>&&&&&&>>%&&&%+++;++++++++++",
"+++++++++++++%&&&&&&&&&&&&&&&&&&&&&%>&&&&&>>%&&&%>%+++;+++++++++",
"++++++++++++%%&&&&&&&&&&&&&&&&&&&&%%>>&&&&&%&&&%>>&%+++;++++++++",
"++.+++++++++%&&&&&&&&&&&&&&&&&&&&&%.%&&&&&>%&&%%%&&&%+;;++++++++",
"+%+++++++++%&&&&&&&&&&&&&&&&&&&&&&%+%>&&&>%&%%>>%%&&%++;++++++++",
"+%%+++++++%%&&&&&&&&&&&&&&&&&&&&&%%++%&&>>>>&%>&&%%%++++++++++++",
"+%&%+++++%&&&&&&&&&&&&&&&&&&&&&&&%++++%>%&%>&&%&&&+++++++.++++++",
"+%&&%%++%%&&&&&&&&&&&&&&&&&&&&&&%++++++%&&&%&&&%&%++++++++++++++",
"+%&&&%%%%&&&&&&&&&&&&&&&&&&&&&&%%++++++;%&&&%&&&++++++++++++++++",
".%&&&&&&&&&&&&&&&&&&&&&&&&&&&&%%......;;;%&&&%&%................",
"+%&&&&&&&&&&&&&&&&&&&&&&&&&&%%+++++++;;;++%&%%++++++++++++++++++",
"++%%&&&&&&&&&&&&&&&&&&&&&&&%%++++++++;;+.+++%+++++++++++++++++++",
"+++%%&&&&&&&&&&&&&&&&&&&%%%++++++++++++++++++++++++++.++++++++++",
"++++%%&&&&&&&&&&&&&&&%%%%++.++++++++++++++++++++++++++++++++++++",
"+++++%%%&&&&%%%%%%%%%%++++++++++++++++++++++++++++++++++++++++++",
"+++++++%%%%%%+++++++++++++++++++++++++++++++++++++++++++++++++++",
"++++++++++++++++++++++++++++++++++++++++++++++++++++++++++++++++",
"++++++++++++++++++++++++++++++++++++.++++++++++.++++++++++++++++",
"++++++++++++++++.+++++++++++++++++++++++++++++++++++++++++++++++",
"................................................................"};
