/* XPM */
static char * shooting_down_3_xpm[] = {
"64 64 14 1",
" 	c None",
".	c #122C43",
"+	c #1B4061",
"@	c #000000",
"#	c #22B14C",
"$	c #AD4011",
"%	c #785A3C",
"&	c #177B35",
"*	c #533E29",
"=	c #464646",
"-	c #303030",
";	c #FF7E00",
">	c #3A2B1C",
",	c #25140D",
"................................................................",
"++++++++++++++++++++++++++++++++++++++++++++++++++++++++++++++++",
"++++++++++++++++++++++++++++++++++++.+++++++++++++++++++++++++++",
"++++++++++++++++.++++++++++++@@@@@@+++++++++.+++++++++++++++++++",
"++++++++++++++++++++++++++++@@@@@@@@++++++++++++++++++++++++++++",
"+++++++++++++++++++++++++++@@@@@@@@@@+++++++++++++.+++++++++++++",
"++++++.++++++++++++++++++++@@@@@@@@@@@++++++++++++++++++++++++++",
"+++++++++++++++++++++++++@@@@#######@@++++++++++++++++++++++++++",
"+++++++++++++++++++++++++@@##@@@@@@@##@++.++++++++++++++.+++++++",
"++++++++++++++++++++.+++@##@@@@@@@@@@@##++++++++++++@@++++++++++",
"++++++++++++++++@@@+++++#@@@@@####@@@@@@#++++++++@@@@+++++++++++",
"................@$$@@@@#@@@@##@@@@##@@@@@#@@@@.@@$$@@...........",
"+++++++++++++++++@@@@@#@@@##@@@@@@@@##@@@@#@@@@$$$@+++++++++++++",
"+++++++++++++++++@$@@@#@@#@@@@####@@@@#@@@#@@@$$$@++++++++++++++",
"+++++++.++++++++.@$$$$#@@#@@%#%%%%#@@@#@$$#$$$$$@@++++++++++++++",
"+++++++++++++++++@@$$#$@#@@%#@@%%@@#@@@#$$$#$$$@@+.+++++++++++++",
"++++++++++++++++++@$$#$$#@@#%@@&&@@%#@@#$$$#$$@@++++++++++++++++",
"++++++++++++++++++@@$#$$#@%#%@##&&@%#%@#$$$#$@@+++++++++++++++++",
"+++++++++++++++++++@$#$$#**#%%#@@&%%#**#$$$#@+++++++++++++++++++",
"++++++++++++++++++++@#$$#@*#***=-***#*@#$$$#+++++++++++++.++++++",
"++++++.+++++++++++++@@#$#@**#%@-=@$#**@#$$#@++++++++++++++++++++",
"+++++++++++++++++++++@#$$#@**#%%%%#**@#$$@#+++++++++++++++++++++",
"......................#$$#$@*@####@*@$#$$@#.....................",
"+++++++++++++++++++++++#$$##@@%%%%@@##$$@#++++++++++++++++++++++",
"+++++++++++++++++++++++@#@@@##$$@@##@@$$#+++++++++++++++++++++++",
"+++++++++++++.+++++++@@@@##;@$####$@;;##@@+++++++.++++++++++++++",
"+++++++++++++++++++.@;;;;;;##@@@@@@;##;;;;@+++++++++++++++++++++",
"++++++++++++++++++++@;;;;;;@;#######;;;;;;@+++++++++++++++++++++",
"++++++++++++++++++++@;;;;;@;;;;;;;;;@;;;;;@+++++++++++++++++++++",
"++++++++++++++++++++@;;;;@;;;;;;;;;;;@;;;;@+++++++++++++++++++++",
"+++++++++++++++++++++@@@@;;;;;;;;;;;;;@@@@++++++++++++++++++++++",
"+++++++.++++++++++++.++++@;;;;;;;;;;;;@++++++++++++++++++.++++++",
"+++++++++++++++++++++++++@;;;;;;;;;;;;@+++++++++++++++++++++++++",
".........................@;;;;;;;;;;;;@.........................",
"+++++++++++++++++++++++++@;;;;;;;;;;;;@+++++++++++++++++++++++++",
"+++++++++++++++++++++++++@;;;;;;;;;;;;@+++++++++++++++++++++++++",
"++++++++++++.++++++++++++@@;;;;;;;;;;@@++.++++++++++++.+++++++++",
"++++++++++++++++++++++++++@@@@@@@@@@@@++++++++++++++++++++++++++",
"+++++++++++++++++++++++++@$$$$$$$$$$$$@+++++++++++++++++++++++++",
"+++++++++++++++++++++++++@@@@@@@@@@@@@@+++++++++++++++++++++++++",
"++++++++++++++++++++++++++@>>>>>>>>>>@++++++++++++++++++++++++++",
"+++++.+++++++++++++++++++@>>>>>>>>>>>>@+++++++.+++++++++++++++++",
"+++++++++++++++++++++++++@>>>>>>>>>>>>@+++++++++++++++++++++++++",
".........................@>>>>>>@>>>>>@.........................",
"+++++++++++++++++++++++++@>>>>>>@>>>>>@+++++++++++++++++++++++++",
"+++++++++++++++++++++++++@>>>>>>@>>>>>@++++++++++.++++++++++++++",
"++++++++++++++++++.++++++@>>>>>>@>>>>>@+++++++++++++++++++++++++",
"++.++++++++++++++++++++++@>>>>>>@>>>>>@+++++++++++++++++++++++++",
"+++++++++++++++++++++++++@>>>>>>@>>>>>@+++++++++++++++++++++++++",
"+++++++++++++++++++++++++@@>>>>@@>>>>@@+++++++++++++++++++++++++",
"+++++++++++++++++++++++++@,@@@@,@@@@@,@++++++++++++++++++.++++++",
"+++++++++++.++++++++++++++@,,,,,@,,,,,@++++.++++++++++++++++++++",
"++++++++++++++++++++++++++@@,,@@@@,,,@++++++++++++++++++++++++++",
"............................@@....@@@...........................",
"++++++++++++++++++++++++++++++++++++++++++++++++++++++++++++++++",
"+++++++.+++++++++++.++++++++++++++++++++.+++++++++++++++++++++++",
"+++++++++++++++++++++++++++++++++++++++++++++++++++++.++++++++++",
"+++++++++++++++++++++++++++.++++++++++++++++++++++++++++++++++++",
"++++++++++++++++++++++++++++++++++++++++++++++++++++++++++++++++",
"++++++++++++++++++++++++++++++++++++++++++++++++++++++++++++++++",
"++++++++++++++++++++++++++++++++++++++++++++++++++++++++++++++++",
"++++++++++++++++++++++++++++++++++++.++++++++++.++++++++++++++++",
"++++++++++++++++.+++++++++++++++++++++++++++++++++++++++++++++++",
"................................................................"};
