/* XPM */
static char * shooting_down_1_xpm[] = {
"64 64 14 1",
" 	c None",
".	c #122C43",
"+	c #1B4061",
"@	c #000000",
"#	c #785A3C",
"$	c #533E29",
"%	c #AD4011",
"&	c #FF7E00",
"*	c #464646",
"=	c #22B14C",
"-	c #177B35",
";	c #3A2B1C",
">	c #303030",
",	c #25140D",
"................................................................",
"++++++++++++++++++++++++++++++++++++++++++++++++++++++++++++++++",
"++++++++++++++++++++++++++++++++++++.+++++++++++++++++++++++++++",
"++++++++++++++++.++++++++++++@@@@@@+++++++++.+++++++++++++++++++",
"++++++++++++++++++++++++++++@@@@@@@@++++++++++++++++++++++++++++",
"+++++++++++++++++++++++++++@@@@@@@@@@+++++++++++++.+++++++++++++",
"++++++.++++++++++++++++++++@@@@@@@@@@@++++++++++++++++++++++++++",
"+++++++++++++++++++++++++@@@@@@@@@@@@@++++++++++++++++++++++++++",
"+++++++++++++++++++++++++@@@@@@@@@@@@@@++.++++++++++++++.+++++++",
"++++++++++++++++++++.+++@@@@@@@@@@@@@@@@++++++++++++++++++++++++",
"++++++++++++++++++++++++@@@@@@@@@@@@@@@@++++++++++++++++++++++++",
"...................@@@@@@@@@@@@@@@@@@@@@@@@@@@..................",
"++++++++++++++++++@@@@@@@@@@@@@@@@@@@@@@@@@@@@@+++++++++++++++++",
"+++++++++++++++++++@@@@@@@@@@@@@@@@@@@@@@@@@@@++++++++++++++++++",
"+++++++.++++++++.+++++++@@@@########@@@@++++++++++++++++++++++++",
"++++++++++++++++++++++++@@@#@@@##@@@#@@@++++++++++.+++++++++++++",
"++++++++++++++++++++++++@@@##@@##@@##@@@++++++++++++++++++++++++",
"++++++++++++++++++++++++@@###@@##@@###@@++++++++++++++++++++++++",
"++++++++++++++++++++++++@$$##########$$@++++++++++++++++++++++++",
"+++++++++++++++++++++++++@$#$$$$$$$$#$@++++++++++++++++++.++++++",
"++++++.++++++++++++++++++@$$#@@@@@@#$$@+++++++++++++++++++++++++",
"+++++++++++++++++++++++++@@$$######$$@@+++++++++++++++++++++++++",
"...........................@$$$$$$$$@...........................",
"++++++++++++++++++++++++++++@@@@@@@@++++++++++++++++++++++++++++",
"+++++++++++++++++++++++++@@@%%%%%%%%@@@@++++++++++++++++++++++++",
"+++++++++++++.+++++++++@@&&@@%%%%%%@@&&&@@+++++++.++++++++++++++",
"+++++++++++++++++++.++@&&&&&&@@@@@@&&&&&&@++++++++++++++++++++++",
"++++++++++++++++++++++@&&&&&&&&&&&&&&&&&&@++++++++++++++++++++++",
"++++++++++++++++++++++@&&&@@&&&&&&&&@&&&&@++++++++++++++++++++++",
"++++++++++++++++++++++@&&&&&@&&&&&&&@&&&&@++++++++++++++++++++++",
"++++++++++++++++++++++@&&&&&@&&&&&&&@&&&@+++++++++++++++++++++++",
"+++++++.++++++++++++.++@&&&&&@&&&&&@&&&&@++++++++++++++++.++++++",
"+++++++++++++++++++++++@@&&&&@&&&&&@&&&@@+++++++++++++++++++++++",
".......................@@&&&&@&&&&&@&&&@@.......................",
"++++++++++++++++++++++@@%@&@@@&&&&&@@@@%%@++++++++++++++++++++++",
"++++++++++++++++++++++@%@@@@%%@&&&@%%%%@%@++++++++++++++++++++++",
"++++++++++++.+++++++++@%%@%%@@@&@@#@@@@%%@@+++++++++++.+++++++++",
"+++++++++++++++++++++@@%%@@@###@@#*##@@%%%@+++++++++++++++++++++",
"+++++++++++++++++++++@%%%@@####@#=**##@%%%@+++++++++++++++++++++",
"+++++++++++++++++++++@%%%@@####@==-*#@@%%%@+++++++++++++++++++++",
"+++++++++++++++++++++@%%@@+@@@@;===-#@%%%%@+++++++++++++++++++++",
"+++++.+++++++++++++++@%%@@;;;;;;*=-@@;@%%%@+++.+++++++++++++++++",
"++++++++++++++++++++@@%@+@;;;;;>>*;;;;@%%%@+++++++++++++++++++++",
"....................@@@..@;;;;;*>;;;;;@@%%@.....................",
"++++++++++++++++++++@@+++@;;;;*>@;;;;;@@@@@+++++++++++++++++++++",
"+++++++++++++++++++++++++@;;;@**@;;;;;@++@@++++++.++++++++++++++",
"++++++++++++++++++.++++++@;;;*@;@;;;;;@+++++++++++++++++++++++++",
"++.++++++++++++++++++++++@;;;;*;@;;;;;@+++++++++++++++++++++++++",
"+++++++++++++++++++++++++@;;;;;;@;;;;;@+++++++++++++++++++++++++",
"+++++++++++++++++++++++++@@;;;;@@;;;;@@+++++++++++++++++++++++++",
"+++++++++++++++++++++++++@,@@@@,@@@@@,@++++++++++++++++++.++++++",
"+++++++++++.++++++++++++++@,,,,,@,,,,,@++++.++++++++++++++++++++",
"++++++++++++++++++++++++++@@,,@@@@,,,@++++++++++++++++++++++++++",
"............................@@....@@@...........................",
"++++++++++++++++++++++++++++++++++++++++++++++++++++++++++++++++",
"+++++++.+++++++++++.++++++++++++++++++++.+++++++++++++++++++++++",
"+++++++++++++++++++++++++++++++++++++++++++++++++++++.++++++++++",
"+++++++++++++++++++++++++++.++++++++++++++++++++++++++++++++++++",
"++++++++++++++++++++++++++++++++++++++++++++++++++++++++++++++++",
"++++++++++++++++++++++++++++++++++++++++++++++++++++++++++++++++",
"++++++++++++++++++++++++++++++++++++++++++++++++++++++++++++++++",
"++++++++++++++++++++++++++++++++++++.++++++++++.++++++++++++++++",
"++++++++++++++++.+++++++++++++++++++++++++++++++++++++++++++++++",
"................................................................"};
