/* XPM */
static char * shooting_up_2_xpm[] = {
"64 64 9 1",
" 	c None",
".	c #122C43",
"+	c #1B4061",
"@	c #000000",
"#	c #785A3C",
"$	c #FF7E00",
"%	c #AD4011",
"&	c #3A2B1C",
"*	c #25140D",
"................................................................",
"++++++++++++++++++++++++++++++++++++++++++++++++++++++++++++++++",
"++++++++++++++++++++++++++++++++++++.+++++++++++++++++++++++++++",
"++++++++++++++++.++++++++++++@@@@@@+++++++++.+++++++++++++++++++",
"++++++++++++++++++++++++++++@@@@@@@@++++++++++++++++++++++++++++",
"+++++++++++++++++++++++++++@@@@@@@@@@+++++++++++++.+++++++++++++",
"++++++.++++++++++++++++++++@@@@@@@@@@@++++++++++++++++++++++++++",
"+++++++++++++++++++++++++@@@@@@@@@@@@@++++++++++++++++++++++++++",
"+++++++++++++++++++++++++@@@@@@@@@@@@@@++.++++++++++++++.+++++++",
"++++++++++++++++++++.+++@@@@@@@@@@@@@@@@++++++++++++++++++++++++",
"++++++++++++++++++++++++@@@@@@@@@@@@@@@@++++++++++++++++++++++++",
"...................@@@@@@@@@@@@@@@@@@@@@@@@@@@..................",
"++++++++++++++++++@@@@@@@@@@@@@@@@@@@@@@@@@@@@@+++++++++++++++++",
"+++++++++++++++++++@@@@@@@@@@@@@@@@@@@@@@@@@@@++++++++++++++++++",
"+++++++.++++++++.+++++++@@@@@@@@@@@@@@@@++++++++++++++++++++++++",
"++++++++++++++++++++++++@@@@@@@@@@@@@@@@++++++++++.+++++++++++++",
"++++++++++++++++++++++++@@@@@@@@@@@@@@@@++++++++++++++++++++++++",
"++++++++++++++++++++++++@@@@@@@@@@@@@@@@++++++++++++++++++++++++",
"++++++++++++++++++++++++@@@@@@@@@@@@@@@@++++++++++++++++++++++++",
"+++++++++++++++++++++++++@@@@@@@@@@@@@@++++++++++++++++++.++++++",
"++++++.++++++++++++++++++@@@@@@@@@@@@@@+++++++++++++++++++++++++",
"+++++++++++++++++++++++++@@##@@@@@@##@@@++++++++++++++++++++++++",
"........................@$$@########@$$$@.......................",
"+++++++++++++++++++++++@$$$$@@@@@@@@@@@@@+++++++++++++++++++++++",
"+++++++++++++++++++++++@$@@@%%%%%%%%%%%%%@@+++++++++++++++++++++",
"+++++++++++++.++++++@@@@@%%%%%%%%%%%%%%%%%@@@++++.++++++++++++++",
"+++++++++++++++++++@%%%%%%%%%%%%%%%%%%%%%%%%@@++++++++++++++++++",
"+++++++++++++++++++@%%%%%%%%%%%%%%%%%%%%%%%%%@++++++++++++++++++",
"++++++++++++++++++@%%%%%%%%%%%%%%%%%%%%%%%%%%@@+++++++++++++++++",
"++++++++++++++++++@%%%%%%%%%%%%%%%%%%%%%%%%%%%@+++++++++++++++++",
"+++++++++++++++++@@%%%%%%%%%%%%%%%%%%%%%%%%%%%@+++++++++++++++++",
"+++++++.+++++++++@%%%%%%%%%%%%%%%%%%%%%%%%%%%%%@+++++++++.++++++",
"+++++++++++++++++@%%%%%%%%%%%%%%%%%%%%%%%%%%%%%@++++++++++++++++",
"................@%%%%%%%%%%%%%%%%%%%%%%%%%%%%%%@@...............",
"++++++++++++++++@%%%%%%%%%%%%%%%%%%%%%%%%%%%%%%%@+++++++++++++++",
"++++++++++++++++@%%%%%%%%%%%%%%%%%%%%%%%%%%%%%%%@+++++++++++++++",
"++++++++++++.+++@%%%%%%@%%%%%%%%%%%%%%%%%%%%%%%%@+++++.+++++++++",
"++++++++++++++++@%%%%%%@%%%%%%%%%%%%%%%%%%%%%%%@++++++++++++++++",
"++++++++++++++++@%%%%%@@@%%%%%%%%%%@%%%%%%%%%%%@++++++++++++++++",
"+++++++++++++++@%%%%%@@+@%%%%%%%%%@&@%%%%%%%%%@+++++++++++++++++",
"++++++++++++++++@%%%%@++@@%%%%%%%@&&@@%%%%%%%%@+++++++++++++++++",
"+++++.+++++++++++@%%@++++@@%%%%%%@&&&@%%%%%%%@.+++++++++++++++++",
"+++++++++++++++++@%@@++++@@%%%%%%@&&&&@%%%%%%@++++++++++++++++++",
".................@%@.....@@%%%%%@&&&&&@@%%%%@...................",
"+++++++++++++++++@@++++++@@%%%%%@&&&&&@+@%%%@+++++++++++++++++++",
"+++++++++++++++++@+++++++@@%%%%@@&&&&&@++@%%@++++.++++++++++++++",
"++++++++++++++++++.++++++@@@%%@@@&&&&@@+++@%@+++++++++++++++++++",
"++.++++++++++++++++++++++@*@%%@*@@@@@*@+++@%@+++++++++++++++++++",
"++++++++++++++++++++++++++@*@%@*@*****@++++@++++++++++++++++++++",
"++++++++++++++++++++++++++@@@@@@+@***@++++++++++++++++++++++++++",
"++++++++++++++++++++++++++++@@++++@@@++++++++++++++++++++.++++++",
"+++++++++++.+++++++++++++++.+++++++++++++++.++++++++++++++++++++",
"++++++++++++++++++++++++++++++++++++++++++++++++++++++++++++++++",
"................................................................",
"++++++++++++++++++++++++++++++++++++++++++++++++++++++++++++++++",
"+++++++.+++++++++++.++++++++++++++++++++.+++++++++++++++++++++++",
"+++++++++++++++++++++++++++++++++++++++++++++++++++++.++++++++++",
"+++++++++++++++++++++++++++.++++++++++++++++++++++++++++++++++++",
"++++++++++++++++++++++++++++++++++++++++++++++++++++++++++++++++",
"++++++++++++++++++++++++++++++++++++++++++++++++++++++++++++++++",
"++++++++++++++++++++++++++++++++++++++++++++++++++++++++++++++++",
"++++++++++++++++++++++++++++++++++++.++++++++++.++++++++++++++++",
"++++++++++++++++.+++++++++++++++++++++++++++++++++++++++++++++++",
"................................................................"};
