/* XPM */
static char * shooting_up_1_xpm[] = {
"64 64 8 1",
" 	c None",
".	c #122C43",
"+	c #1B4061",
"@	c #000000",
"#	c #785A3C",
"$	c #AD4011",
"%	c #3A2B1C",
"&	c #25140D",
"................................................................",
"++++++++++++++++++++++++++++++++++++++++++++++++++++++++++++++++",
"++++++++++++++++++++++++++++++++++++.+++++++++++++++++++++++++++",
"++++++++++++++++.++++++++++++@@@@@@+++++++++.+++++++++++++++++++",
"++++++++++++++++++++++++++++@@@@@@@@++++++++++++++++++++++++++++",
"+++++++++++++++++++++++++++@@@@@@@@@@+++++++++++++.+++++++++++++",
"++++++.++++++++++++++++++++@@@@@@@@@@@++++++++++++++++++++++++++",
"+++++++++++++++++++++++++@@@@@@@@@@@@@++++++++++++++++++++++++++",
"+++++++++++++++++++++++++@@@@@@@@@@@@@@++.++++++++++++++.+++++++",
"++++++++++++++++++++.+++@@@@@@@@@@@@@@@@++++++++++++++++++++++++",
"++++++++++++++++++++++++@@@@@@@@@@@@@@@@++++++++++++++++++++++++",
"...................@@@@@@@@@@@@@@@@@@@@@@@@@@@..................",
"++++++++++++++++++@@@@@@@@@@@@@@@@@@@@@@@@@@@@@+++++++++++++++++",
"+++++++++++++++++++@@@@@@@@@@@@@@@@@@@@@@@@@@@++++++++++++++++++",
"+++++++.++++++++.+++++++@@@@@@@@@@@@@@@@++++++++++++++++++++++++",
"++++++++++++++++++++++++@@@@@@@@@@@@@@@@++++++++++.+++++++++++++",
"++++++++++++++++++++++++@@@@@@@@@@@@@@@@++++++++++++++++++++++++",
"++++++++++++++++++++++++@@@@@@@@@@@@@@@@++++++++++++++++++++++++",
"++++++++++++++++++++++++@@@@@@@@@@@@@@@@++++++++++++++++++++++++",
"+++++++++++++++++++++++++@@@@@@@@@@@@@@++++++++++++++++++.++++++",
"++++++.++++++++++++++++++@@@@@@@@@@@@@@+++++++++++++++++++++++++",
"+++++++++++++++++++++++++@@##@@@@@@##@@+++++++++++++++++++++++++",
"...........................@########@...........................",
"++++++++++++++++++++++++++++@@@@@@@@@@@@@+++++++++++++++++++++++",
"+++++++++++++++++++++++++@@@$$$$$$$$$$$$$@@+++++++++++++++++++++",
"+++++++++++++.++++++@@@@@$$$$$$$$$$$$$$$$$@@@++++.++++++++++++++",
"+++++++++++++++++++@$$$$$$$$$$$$$$$$$$$$$$$$@@++++++++++++++++++",
"+++++++++++++++++++@$$$$$$$$$$$$$$$$$$$$$$$$$@++++++++++++++++++",
"++++++++++++++++++@$$$$$$$$$$$$$$$$$$$$$$$$$$@@+++++++++++++++++",
"++++++++++++++++++@$$$$$$$$$$$$$$$$$$$$$$$$$$$@+++++++++++++++++",
"+++++++++++++++++@@$$$$$$$$$$$$$$$$$$$$$$$$$$$@+++++++++++++++++",
"+++++++.+++++++++@$$$$$$$$$$$$$$$$$$$$$$$$$$$$$@+++++++++.++++++",
"+++++++++++++++++@$$$$$$$$$$$$$$$$$$$$$$$$$$$$$@++++++++++++++++",
"................@$$$$$$$$$$$$$$$$$$$$$$$$$$$$$$@@...............",
"++++++++++++++++@$$$$$$$$$$$$$$$$$$$$$$$$$$$$$$$@+++++++++++++++",
"++++++++++++++++@$$$$$$$$$$$$$$$$$$$$$$$$$$$$$$$@+++++++++++++++",
"++++++++++++.+++@$$$$$$@$$$$$$$$$$$$$$$$$$$$$$$$@+++++.+++++++++",
"++++++++++++++++@$$$$$$@$$$$$$$$$$$$$$$$$$$$$$$@++++++++++++++++",
"++++++++++++++++@$$$$$@@@$$$$$$$$$$@$$$$$$$$$$$@++++++++++++++++",
"+++++++++++++++@$$$$$@@+@$$$$$$$$$@%@$$$$$$$$$@+++++++++++++++++",
"++++++++++++++++@$$$$@++@@$$$$$$$@%%@@$$$$$$$$@+++++++++++++++++",
"+++++.+++++++++++@$$@++++@@$$$$$$@%%%@$$$$$$$@.+++++++++++++++++",
"+++++++++++++++++@$@@++++@@$$$$$$@%%%%@$$$$$$@++++++++++++++++++",
".................@$@.....@@$$$$$@%%%%%@@$$$$@...................",
"+++++++++++++++++@@++++++@@$$$$$@%%%%%@+@$$$@+++++++++++++++++++",
"+++++++++++++++++@+++++++@@$$$$@@%%%%%@++@$$@++++.++++++++++++++",
"++++++++++++++++++.++++++@@@$$@@@%%%%@@+++@$@+++++++++++++++++++",
"++.++++++++++++++++++++++@&@$$@&@@@@@&@+++@$@+++++++++++++++++++",
"++++++++++++++++++++++++++@&@$@&@&&&&&@++++@++++++++++++++++++++",
"++++++++++++++++++++++++++@@@@@@+@&&&@++++++++++++++++++++++++++",
"++++++++++++++++++++++++++++@@++++@@@++++++++++++++++++++.++++++",
"+++++++++++.+++++++++++++++.+++++++++++++++.++++++++++++++++++++",
"++++++++++++++++++++++++++++++++++++++++++++++++++++++++++++++++",
"................................................................",
"++++++++++++++++++++++++++++++++++++++++++++++++++++++++++++++++",
"+++++++.+++++++++++.++++++++++++++++++++.+++++++++++++++++++++++",
"+++++++++++++++++++++++++++++++++++++++++++++++++++++.++++++++++",
"+++++++++++++++++++++++++++.++++++++++++++++++++++++++++++++++++",
"++++++++++++++++++++++++++++++++++++++++++++++++++++++++++++++++",
"++++++++++++++++++++++++++++++++++++++++++++++++++++++++++++++++",
"++++++++++++++++++++++++++++++++++++++++++++++++++++++++++++++++",
"++++++++++++++++++++++++++++++++++++.++++++++++.++++++++++++++++",
"++++++++++++++++.+++++++++++++++++++++++++++++++++++++++++++++++",
"................................................................"};
