/* XPM */
static char * wall_xpm[] = {
"64 64 5 1",
" 	c None",
".	c #000000",
"+	c #5D461E",
"@	c #5D3C1E",
"#	c #4E2D1E",
"................................................................",
".++++++++++++++++++++++++++++++++++++++++++++++++++++++++++++++.",
".@@@@@@@@@@@@@@@@@@@@@@@@@@@@@@@@@@@@@@@@@@@@@@@@@@@@@@@@@@@@@@.",
".@@@@@@@@@@@@@@@@@@@@@@@@@@@@@@@@@@@@@@@@@@@@@@@@@@@@@@@@@@@@@@.",
".@@@@@@@@@@@@@@@@@@@@@@@@@@@@@@@@@@@@@@@@@@@@@@@@@@@@@@@@@@@@@@.",
".@@@@@@@@@@@@@@@@@@@@@@@@@@@@@@@@@@@@@@@@@@@@@@@@@@@@@@@@@@@@@@.",
".@@@@@@@@@@@@@@@@@@@@@@@@@@@@@@@@@@@@@@@@@@@@@@@@@@@@@@@@@@@@@@.",
"................................................................",
".++++++.#############.#################.###############..++++++.",
".@@@@@@.@@@@@@@@@@@#.+@@@@@@@@@@@@@@@#.+@@@@@@@@@@@@@#.+.@@@@@@.",
".@@@@@@.@@@@@@@@@@#.+@@@@@@@@@@@@@@@#.+@@@@@@@@@@@@@#.+@.@@@@@@.",
".@@@@@@.@@@@@@@@@#.+@@@@@@@@@@@@@@@#.+@@@@@@@@@@@@@#.+@@.@@@@@@.",
".@@@@@@.@@@@@@@@#.+@@@@@@@@@@@@@@@#.+@@@@@@@@@@@@@#.+@@@.@@@@@@.",
".@@@@@@.@@@@@@@#.+@@@@@@@@@@@@@@@#.+@@@@@@@@@@@@@#.+@@@@.@@@@@@.",
".@@@@@@.@@@@@@#.+@@@@@@@@@@@@@@@#.+@@@@@@@@@@@@@#.+@@@@@.@@@@@@.",
".@@@@@@.@@@@@#.+@@@@@@@@@@@@@@@#.+@@@@@@@@@@@@@#.+@@@@@@.@@@@@@.",
".@@@@@@.@@@@#.+@@@@@@@@@@@@@@@#.+@@@@@@@@@@@@@#.+@@@@@@@.@@@@@@.",
".@@@@@@.@@@#.+@@@@@@@@@@@@@@@#.+@@@@@@@@@@@@@#.+@@@@@@@@.@@@@@@.",
".@@@@@@.@@#.+@@@@@@@@@@@@@@@#.+@@@@@@@@@@@@@#.+@@@@@@@@@.@@@@@@.",
".@@@@@@.@#.+@@@@@@@@@@@@@@@#.+@@@@@@@@@@@@@#.+@@@@@@@@@@.@@@@@@.",
".@@@@@@.#.+@@@@@@@@@@@@@@@#.+@@@@@@@@@@@@@#.+@@@@@@@@@@@.@@@@@@.",
".@@@@@@..+@@@@@@@@@@@@@@@#.+@@@@@@@@@@@@@#.+@@@@@@@@@@@@.@@@@@@.",
".@@@@@@.+@@@@@@@@@@@@@@@#.+@@@@@@@@@@@@@#.+@@@@@@@@@@@@@.@@@@@@.",
".@@@@@@.@@@@@@@@@@@@@@@#.+@@@@@@@@@@@@@#.+@@@@@@@@@@@@@#.@@@@@@.",
".@@@@@@.@@@@@@@@@@@@@@#.+@@@@@@@@@@@@@#.+@@@@@@@@@@@@@#..@@@@@@.",
".@@@@@@.@@@@@@@@@@@@@#.+@@@@@@@@@@@@@#.+@@@@@@@@@@@@@#.+.@@@@@@.",
".@@@@@@.@@@@@@@@@@@@#.+@@@@@@@@@@@@@#.+@@@@@@@@@@@@@#.+@.@@@@@@.",
".@@@@@@.@@@@@@@@@@@#.+@@@@@@@@@@@@@#.+@@@@@@@@@@@@@#.+@@.@@@@@@.",
".@@@@@@.@@@@@@@@@@#.+@@@@@@@@@@@@@#.+@@@@@@@@@@@@@#.+@@@.@@@@@@.",
".@@@@@@.@@@@@@@@@#.+@@@@@@@@@@@@@#.+@@@@@@@@@@@@@#.+@@@@.@@@@@@.",
".@@@@@@.@@@@@@@@#.+@@@@@@@@@@@@@#.+@@@@@@@@@@@@@#.+@@@@@.@@@@@@.",
".@@@@@@.@@@@@@@#.+@@@@@@@@@@@@@#.+@@@@@@@@@@@@@#.+@@@@@@.@@@@@@.",
".@@@@@@.@@@@@@#.+@@@@@@@@@@@@@#.+@@@@@@@@@@@@@#.+@@@@@@@.@@@@@@.",
".@@@@@@.@@@@@#.+@@@@@@@@@@@@@#.+@@@@@@@@@@@@@#.+@@@@@@@@.@@@@@@.",
".@@@@@@.@@@@#.+@@@@@@@@@@@@@#.+@@@@@@@@@@@@@#.+@@@@@@@@@.@@@@@@.",
".@@@@@@.@@@#.+@@@@@@@@@@@@@#.+@@@@@@@@@@@@@#.+@@@@@@@@@@.@@@@@@.",
".@@@@@@.@@#.+@@@@@@@@@@@@@#.+@@@@@@@@@@@@@#.+@@@@@@@@@@@.@@@@@@.",
".@@@@@@.@#.+@@@@@@@@@@@@@#.+@@@@@@@@@@@@@#.+@@@@@@@@@@@@.@@@@@@.",
".@@@@@@.#.+@@@@@@@@@@@@@#.+@@@@@@@@@@@@@#.+@@@@@@@@@@@@@.@@@@@@.",
".@@@@@@..+@@@@@@@@@@@@@#.+@@@@@@@@@@@@@#.+@@@@@@@@@@@@@#.@@@@@@.",
".@@@@@@.+@@@@@@@@@@@@@#.+@@@@@@@@@@@@@#.+@@@@@@@@@@@@@#..@@@@@@.",
".@@@@@@.@@@@@@@@@@@@@#.+@@@@@@@@@@@@@#.+@@@@@@@@@@@@@#.+.@@@@@@.",
".@@@@@@.@@@@@@@@@@@@#.+@@@@@@@@@@@@@#.+@@@@@@@@@@@@@#.+@.@@@@@@.",
".@@@@@@.@@@@@@@@@@@#.+@@@@@@@@@@@@@#.+@@@@@@@@@@@@@#.+@@.@@@@@@.",
".@@@@@@.@@@@@@@@@@#.+@@@@@@@@@@@@@#.+@@@@@@@@@@@@@#.+@@@.@@@@@@.",
".@@@@@@.@@@@@@@@@#.+@@@@@@@@@@@@@#.+@@@@@@@@@@@@@#.+@@@@.@@@@@@.",
".@@@@@@.@@@@@@@@#.+@@@@@@@@@@@@@#.+@@@@@@@@@@@@@#.+@@@@@.@@@@@@.",
".@@@@@@.@@@@@@@#.+@@@@@@@@@@@@@#.+@@@@@@@@@@@@@#.+@@@@@@.@@@@@@.",
".@@@@@@.@@@@@@#.+@@@@@@@@@@@@@#.+@@@@@@@@@@@@@#.+@@@@@@@.@@@@@@.",
".@@@@@@.@@@@@#.+@@@@@@@@@@@@@#.+@@@@@@@@@@@@@#.+@@@@@@@@.@@@@@@.",
".@@@@@@.@@@@#.+@@@@@@@@@@@@@#.+@@@@@@@@@@@@@#.+@@@@@@@@@.@@@@@@.",
".@@@@@@.@@@#.+@@@@@@@@@@@@@#.+@@@@@@@@@@@@@#.+@@@@@@@@@@.@@@@@@.",
".@@@@@@.@@#.+@@@@@@@@@@@@@#.+@@@@@@@@@@@@@#.+@@@@@@@@@@@.@@@@@@.",
".@@@@@@.@#.+@@@@@@@@@@@@@#.+@@@@@@@@@@@@@#.+@@@@@@@@@@@@.@@@@@@.",
".@@@@@@.#.+@@@@@@@@@@@@@#.+@@@@@@@@@@@@@#.+@@@@@@@@@@@@@.@@@@@@.",
".@@@@@@..+@@@@@@@@@@@@@#.+@@@@@@@@@@@@@#.+@@@@@@@@@@@@@@.@@@@@@.",
"................................................................",
".++++++++++++++++++++++++++++++++++++++++++++++++++++++++++++++.",
".@@@@@@@@@@@@@@@@@@@@@@@@@@@@@@@@@@@@@@@@@@@@@@@@@@@@@@@@@@@@@@.",
".@@@@@@@@@@@@@@@@@@@@@@@@@@@@@@@@@@@@@@@@@@@@@@@@@@@@@@@@@@@@@@.",
".@@@@@@@@@@@@@@@@@@@@@@@@@@@@@@@@@@@@@@@@@@@@@@@@@@@@@@@@@@@@@@.",
".@@@@@@@@@@@@@@@@@@@@@@@@@@@@@@@@@@@@@@@@@@@@@@@@@@@@@@@@@@@@@@.",
".@@@@@@@@@@@@@@@@@@@@@@@@@@@@@@@@@@@@@@@@@@@@@@@@@@@@@@@@@@@@@@.",
"................................................................"};
